/* XPM */
static char * coronal_xpm[] = {
"32 32 12 1",
" 	c None",
".	c #C6C9FF",
"+	c #8C91FF",
"@	c #2C2F82",
"#	c #000000",
"$	c #949494",
"%	c #ADADAD",
"&	c #BDBDBD",
"*	c #424242",
"=	c #636363",
"-	c #DEDEDE",
";	c #212121",
"                                ",
"                                ",
"                                ",
"     .....................+     ",
"     .+++@.+++++++++++++++@     ",
"     .+.+@.+++++++++++++++@     ",
"     .+++@.+++++++++++++++@     ",
"     .@@@@@@@@@@@@@@@@@@@@@     ",
"     .#####$%%&%&%%#######@     ",
"     .####%***$*=$*=%#####@     ",
"     .###%==$=%==%-$=&####@     ",
"     .###$;$%&-$$--%$*$###@     ",
"     .###%=$---%$---&=%###@     ",
"     .##$=$%&-&=$%--$=$###@     ",
"     .##%**$&-$==$$&=*$###@     ",
"     .##&*==$==$*==&=**%##@     ",
"     .##$=$%-&$==$&&%$=$##@     ",
"     .##%;$&-&=##=$-%$;###@     ",
"     .###$*$$$###*%%$*%###@     ",
"     .####%#=######=#%####@     ",
"     .####################@     ",
"     +@@@@@@@@@@@@@@@@@@@@@     ",
"                                ",
"                                ",
"  ###                         # ",
" #   #  ##  # # ##  # #  ##   # ",
" #     #  # ## #  # ## #   #  # ",
" #     #  # #  #  # #  # ###  # ",
" #   # #  # #  #  # #  ##  #  # ",
"  ###   ##  #   ##  #  # ## # # ",
"                                ",
"                                "};
